<?xml version="1.0" standalone="no"?>
<!DOCTYPE svg PUBLIC "-//W3C//DTD SVG 20010904//EN"
 "http://www.w3.org/TR/2001/REC-SVG-20010904/DTD/svg10.dtd">
<svg version="1.0" xmlns="http://www.w3.org/2000/svg"
 width="960.000000pt" height="1280.000000pt" viewBox="0 0 960.000000 1280.000000"
 preserveAspectRatio="xMidYMid meet">
<metadata>
Created by potrace 1.15, written by Peter Selinger 2001-2017
</metadata>
<g transform="translate(0.000000,1280.000000) scale(0.100000,-0.100000)"
fill="#000000" stroke="none">
<path d="M6060 11646 l-3125 -632 -3 -4047 c-1 -2226 -4 -4047 -7 -4047 -3 0
-29 20 -59 44 -141 114 -382 176 -689 176 -394 0 -806 -184 -1200 -534 -307
-273 -516 -606 -594 -947 -26 -113 -23 -368 5 -472 91 -334 353 -574 707 -648
104 -22 308 -26 425 -9 531 80 1068 424 1375 885 114 170 193 351 242 555 17
71 18 266 20 4085 l3 4011 2913 587 c1601 324 2915 588 2920 587 4 0 7 -1598
7 -3551 l0 -3550 -42 34 c-162 131 -372 189 -698 190 -144 0 -192 -3 -273 -21
-485 -107 -998 -471 -1302 -923 -71 -105 -155 -277 -194 -394 -86 -261 -79
-546 18 -760 119 -262 391 -459 704 -510 401 -65 955 117 1343 440 342 285
547 596 642 975 l27 105 2 4503 3 4502 -22 -1 c-13 0 -1429 -285 -3148 -633z"/>
</g>
</svg>
